<?xml version="1.0" encoding="UTF-8"?>
<svg xmlns="http://www.w3.org/2000/svg" xmlns:xlink="http://www.w3.org/1999/xlink" width="42px" height="42px" viewBox="0 0 42 42" version="1.1">
<g id="surface1">
<path style=" stroke:none;fill-rule:nonzero;fill:rgb(0%,0%,0%);fill-opacity:1;" d="M 20.976562 0.230469 C 9.539062 0.230469 0.230469 9.539062 0.230469 20.976562 C 0.230469 32.414062 9.539062 41.722656 20.976562 41.722656 C 32.414062 41.722656 41.722656 32.414062 41.722656 20.976562 C 41.722656 9.539062 32.414062 0.230469 20.976562 0.230469 Z M 2.097656 21.898438 L 9.484375 21.898438 C 9.546875 24.722656 9.914062 27.378906 10.523438 29.78125 L 4.257812 29.78125 C 3 27.40625 2.234375 24.734375 2.097656 21.898438 Z M 21.898438 10.328125 L 21.898438 2.167969 C 24.765625 2.726562 27.308594 5.859375 28.902344 10.328125 Z M 29.484375 12.171875 C 30.144531 14.5625 30.550781 17.238281 30.625 20.054688 L 21.898438 20.054688 L 21.898438 12.171875 Z M 20.054688 2.167969 L 20.054688 10.328125 L 13.050781 10.328125 C 14.644531 5.859375 17.1875 2.726562 20.054688 2.167969 Z M 20.054688 12.171875 L 20.054688 20.054688 L 11.328125 20.054688 C 11.398438 17.238281 11.808594 14.5625 12.46875 12.171875 Z M 9.484375 20.054688 L 2.097656 20.054688 C 2.234375 17.21875 3 14.546875 4.257812 12.171875 L 10.523438 12.171875 C 9.914062 14.574219 9.546875 17.230469 9.484375 20.054688 Z M 11.328125 21.898438 L 20.054688 21.898438 L 20.054688 29.78125 L 12.46875 29.78125 C 11.808594 27.390625 11.398438 24.714844 11.328125 21.898438 Z M 20.054688 31.625 L 20.054688 39.785156 C 17.1875 39.226562 14.644531 36.09375 13.050781 31.625 Z M 21.898438 39.785156 L 21.898438 31.625 L 28.902344 31.625 C 27.308594 36.09375 24.765625 39.226562 21.898438 39.785156 Z M 21.898438 29.78125 L 21.898438 21.898438 L 30.625 21.898438 C 30.550781 24.714844 30.144531 27.390625 29.484375 29.78125 Z M 32.46875 21.898438 L 39.855469 21.898438 C 39.71875 24.734375 38.949219 27.40625 37.695312 29.78125 L 31.429688 29.78125 C 32.039062 27.378906 32.40625 24.722656 32.46875 21.898438 Z M 32.46875 20.054688 C 32.40625 17.230469 32.039062 14.574219 31.429688 12.171875 L 37.695312 12.171875 C 38.949219 14.546875 39.71875 17.21875 39.855469 20.054688 Z M 36.585938 10.328125 L 30.898438 10.328125 C 29.90625 7.28125 28.492188 4.757812 26.792969 2.992188 C 30.808594 4.296875 34.242188 6.910156 36.585938 10.328125 Z M 15.160156 2.992188 C 13.460938 4.757812 12.046875 7.28125 11.054688 10.328125 L 5.367188 10.328125 C 7.707031 6.910156 11.140625 4.296875 15.160156 2.992188 Z M 5.371094 31.625 L 11.054688 31.625 C 12.046875 34.671875 13.460938 37.195312 15.160156 38.960938 C 11.140625 37.65625 7.710938 35.042969 5.371094 31.625 Z M 26.792969 38.957031 C 28.492188 37.195312 29.90625 34.671875 30.898438 31.625 L 36.585938 31.625 C 34.242188 35.042969 30.808594 37.65625 26.792969 38.957031 Z M 26.792969 38.957031 "/>
</g>
</svg>
